<svg xmlns="http://www.w3.org/2000/svg" viewBox="0 0 22 32">
    <g fill="currentColor">
        <path d="M21.999 28.88l-7.853-17.185 0.015-0.64h-1.485l0.015 0.643-1.897 4.162c-0.605-1.117-0.669-1.384-0.669-1.384-0.47-0.198-0.745-0.589-0.88-0.839 0 0 0 0 0 0s0 0 0 0c0.104-0.076 0.255-0.245 0.413-0.443 0.994-0.784 1.972-1.413 1.972-1.413s-0.057-0.207-0.163-0.5c0.008-0.013 0.017-0.025 0.026-0.038 0.084 0.134 0.137 0.218 0.137 0.218l0.235-0.23c0 0 0.723-0.243 1.39-0.559 0.445-0.004 0.93-0.012 1.431-0.024 0.776-0.019 1.275-0.933 1.452-2.016 0.355 0.019 1.227 0.066 1.393 0.075 0.21 0.012 0.186-0.152 0.186-0.152v-1.559c0 0 0.018-0.127-0.203-0.126-0.239 0.001-1.019 0.050-1.363 0.072-0.156-1.024-0.632-1.86-1.466-1.86-0.946 0-1.768 0-2.392 0-1.379 0-1.262 0.652-1.262 0.652v2.438c-0.152 0.176-0.262 0.47-0.344 0.731-0.001 0.001-0.003 0.002-0.004 0.002-0.364-0.723-0.839-1.607-1.038-1.718-0.343-0.19-0.979-0.439-0.979-0.439-0.201 0.132-0.132-0.287 0.127-0.457 0.032-0.021 0.39-0.228 0.39-0.228l-0.048 0.39 0.228-0.162v0.247l0.209-0.247v0.337l0.152-0.223 0.038 0.223 0.117-0.223 0.093 0.057 0.076-0.171h0.133v-0.162l0.304-0.599c0 0 0.685 0.247 0.476-0.228s0.040-1.047 0.040-1.047 0.379-0.19 0.55-0.761 0.277-0.4 0.277-0.4v-0.552h-0.162c0 0-1.446-5.1-5.766-0.856-0.136 0.134-0.011-0.167-0.13-0.049l-0.136 0.506 0.073 0.127c0 0 0.135 0.127 0.096 0.255l-0.055-0.090-0.279 0.609-0.254 0.33 0.266-0.101 0.242-0.329-0.255 0.431-0.101 0.203 0.252-0.060-0.151 0.288c-0 0-0 0-0 0-0.477 0.604-1.194 1.041-1.88 1.345-1.503 0.666-1.114 1.275-1.647 1.732 0.019 0.038-0.4 3.114-1.18 3.936s0.533 0.86-0.285 1.545c-0.612 0.512-0.458 0.982-0.429 1.33l-0.047 0.021c0 0-0.002 0.11 0.001 0.284-0 0.001-0.001 0.001-0.001 0.002l0.001-0c0.008 0.704 0.075 2.441 0.532 2.075 0.571-0.457 0.914 0.228 0.419 0.495-0.203 0.109 0.19 0.837 0.723 1.658 0.767 1.181 1.827 2.553 1.827 2.553s-0.192 0.471-0.393 1.051c-0.013-0.021-0.026-0.043-0.036-0.064-0.36-0.758-1.589 5.421-2.172 7.212-0.082 1.239-0.163 1.213-0.163 1.213s2.188 1.423 4.047 1.805c0 0 0.671 0.043 1.12-0.266 0.279-0.192 0.042-0.573 0.009-0.814s-1.042-1.561-2.184-1.889c-0.524-0.151 0.337-0.294 0.192-0.633s0.498-0.983 0.495-1.097c-0.003-0.114 2.021-3.751 2.021-3.751s-0.068-0.020-0.184-0.056c0.308-0.588 0.521-0.985 0.521-0.985s1.142-0.837 0.723-2.664-0.152-1.675-0.152-1.675-0.016-0.053-0.031-0.131c0.618 0.884 1.231 1.68 1.231 1.68s-0.079 0.194-0.188 0.484c-0.017-0.025-0.033-0.051-0.047-0.076-0.223-0.426-0.648 1.495-1.062 3.508l-2.395 5.253 0.367 0.254 1.502-2.968c-0.093 0.424-0.179 0.79-0.255 1.056-0.094 1.027-0.125 1.11-0.131 1.113 0.032 0.017 2.244 1.197 4.033 1.598 0 0 0.714 0.038 1.074-0.22 0.268-0.192 0.019-0.56-0.022-0.793s-1.073-1.48-2.198-1.757c-0.515-0.127 0.317-0.299 0.163-0.623s0.448-0.976 0.441-1.087c-0.008-0.111 1.825-3.728 1.825-3.728s-0.058-0.014-0.157-0.041c0.109-0.205 0.173-0.325 0.173-0.325s1.195-0.827 0.69-2.544c-0.325-0.729-0.707-1.384-0.707-1.384s-0.155-0.208-0.291-0.431l1.388-2.742 0.412 17.109h0.528l0.394-17.11 7.546 14.872 0.366-0.254zM5.972 2.802c0.018-0.019 0.036-0.039 0.055-0.062l-0.043 0.082-0.012-0.020zM9.112 13.641c0 0 0 0 0 0s-0-0-0-0 0 0 0 0zM9.198 13.666c-0.001 0.001-0.003 0.001-0.004 0.002 0.001-0.001 0.003-0.001 0.004-0.002zM9.178 13.675c-0.001 0-0.003 0.001-0.004 0.001 0.001-0.001 0.003-0.001 0.004-0.001zM9.159 13.678c-0.001 0-0.002 0-0.003 0 0.001 0 0.002-0 0.003-0zM9.143 13.677c-0-0-0.001-0-0.001-0s0.001 0 0.001 0zM9.217 13.655c0.001-0.001 0.002-0.001 0.003-0.002-0.001 0.001-0.002 0.001-0.003 0.002zM9.207 13.565c0.010 0.021 0.021 0.043 0.034 0.066-0.013-0.024-0.024-0.045-0.034-0.066z" />
    </g>
</svg>
