<?xml version="1.0" encoding="utf-8"?>
<svg viewBox="0 0 17.638889 21.166664" height="80" width="80" xmlns="http://www.w3.org/2000/svg">
  <circle fill="#FFFFFF" cx="9" cy="9" r="7"/>
  <g transform="translate(-78.115082,-80.886905)" id="layer1">
    <path d="m 86.934522,80.886905 c -4.8701,0 -8.81944,3.876146 -8.81944,8.656287 0,4.855101 3.8585,8.173855 8.81944,12.510378 4.96094,-4.336523 8.81945,-7.655277 8.81945,-12.510378 0,-4.780141 -3.94935,-8.656287 -8.81945,-8.656287 z m 0,15.875 c -3.89731,0 -7.05555,-3.159125 -7.05555,-7.055555 0,-3.896431 3.15824,-7.055556 7.05555,-7.055556 3.89731,0 7.05556,3.159125 7.05556,7.055556 0,3.89643 -3.15825,7.055555 -7.05556,7.055555 z" id="path28" style="stroke-width:0.881949"/>
  </g>
  <text x="50%" y="50%" fill="#444444" font-weight="bold" font-family="sans-serif" font-size="6px" text-anchor="middle" style="white-space: pre;">
        222
    </text>
</svg>