<?xml version="1.0" encoding="utf-8"?>
<svg viewBox="0 0 261.575 101.18" width="100px" height="50px" xmlns="http://www.w3.org/2000/svg">
  <defs>
    <clipPath id="clippath0" transform="">
      <path d="M 0 612 L 792 612 L 792 0 L 0 0 Z" style="fill: none; clip-rule: nonzero;"/>
    </clipPath>
  </defs>
  <g transform="matrix(1, 0, 0, -1, 0, 612)">
    <path d="M 0 612 L 792 612 L 792 0 L 0 0 Z" style="fill: none;"/>
  </g>
  <g style="clip-path: url(#clippath0);" transform="matrix(1, 0, 0, -1, -267.213989, 356.589905)">
    <g transform="translate(302.0812 306.3531)">
      <path d="M 0 0 C 0.389 0.254 0.782 0.492 1.166 0.71 C 0.725 0.71 0.354 0.482 0 0" style="fill: rgb(0, 0, 0); fill-opacity: 1;"/>
    </g>
  </g>
  <g style="clip-path: url(#clippath0);" transform="matrix(1, 0, 0, -1, -267.213989, 356.589905)">
    <g transform="translate(367.344 295.7099)">
      <path d="M 0 0 C 0.687 3.323 1.05 6.764 1.05 10.29 C 1.05 38.23 -21.6 60.88 -49.54 60.88 C -77.48 60.88 -100.13 38.23 -100.13 10.29 C -100.13 1.921 -98.088 -5.966 -94.487 -12.918 C -90.342 -10.453 -84.566 -6.881 -82.354 -5.499 C -80.597 -4.402 -78.584 -2.215 -76.708 -0.095 C -74.713 2.159 -72.875 4.337 -71.673 5.047 C -70.333 5.839 -69.809 6.002 -69.446 6.316 C -69.176 6.549 -68.995 6.866 -68.638 7.585 C -68.192 8.483 -66.766 9.663 -65.263 10.643 C -64.909 11.125 -64.537 11.354 -64.097 11.354 C -64.04 11.386 -63.981 11.422 -63.925 11.454 C -62.017 12.514 -61.496 12.68 -61.496 12.68 C -61.496 12.68 -60.86 12.256 -61.496 11.408 C -61.664 11.185 -61.928 10.871 -62.234 10.517 C -63.091 9.523 -64.286 8.189 -64.677 7.486 C -65.207 6.531 -66.479 5.365 -67.327 4.305 C -68.175 3.245 -68.387 2.715 -68.811 2.185 C -69.235 1.655 -67.327 3.669 -65.949 4.835 C -64.571 6.001 -63.405 7.38 -62.875 8.016 C -62.344 8.652 -62.238 7.486 -63.723 4.941 C -65.028 2.704 -65.594 3.089 -65.712 1.989 C -65.729 1.838 -65.737 1.661 -65.737 1.443 C -65.737 -0.359 -65.207 1.443 -65.737 -0.359 C -66.267 -2.161 -67.221 -2.161 -67.221 -3.433 C -67.221 -4.705 -66.903 -4.599 -67.221 -5.977 C -67.539 -7.355 -68.493 -8.627 -69.659 -10.218 C -70.825 -11.808 -71.567 -12.182 -72.945 -14.009 C -74.323 -15.836 -76.655 -18.486 -77.185 -20.394 C -77.715 -22.302 -77.221 -21.666 -78.74 -23.362 L -80.26 -25.058 C -80.26 -25.058 -73.369 -22.726 -72.627 -21.878 C -71.885 -21.03 -71.567 -21.984 -71.885 -23.15 C -72.203 -24.317 -71.991 -24.422 -70.613 -23.044 C -69.235 -21.666 -64.571 -17.638 -64.253 -17.744 C -63.935 -17.85 -65.101 -18.062 -65.631 -20.288 C -66.161 -22.514 -68.811 -26.119 -69.447 -26.967 C -70.083 -27.815 -70.083 -27.603 -70.825 -28.875 C -71.567 -30.147 -73.475 -31.737 -73.475 -32.267 C -73.475 -32.491 -73.671 -33.263 -73.786 -34.101 C -66.585 -38.043 -58.329 -40.3 -49.54 -40.3 C -38.958 -40.3 -29.139 -37.046 -21.018 -31.491 C -21.95 -30.048 -22.981 -28.461 -23.155 -28.234 C -23.483 -27.808 -25.581 -25.989 -26.18 -25.227 C -26.779 -24.464 -28.008 -23.094 -28.171 -22.838 C -28.334 -22.583 -25.281 -28.244 -25.609 -27.7 C -26.076 -26.927 -28.216 -24.856 -28.782 -23.753 C -29.349 -22.649 -30.771 -20.183 -31.241 -19.501 C -31.711 -18.82 -33.444 -17.178 -33.687 -16.716 C -33.93 -16.254 -37.792 -12.936 -38.097 -12.204 C -38.263 -11.806 -38.536 -11.303 -38.873 -10.74 C -39.584 -10.2 -40.31 -9.532 -40.906 -8.713 C -42.602 -6.381 -40.058 -7.971 -42.814 -5.957 C -45.57 -3.943 -47.69 -0.974 -48.644 1.146 C -49.035 2.015 -49.476 2.803 -49.865 3.442 C -50.272 3.965 -50.583 4.368 -50.73 4.558 C -50.776 4.614 -50.813 4.661 -50.829 4.687 C -50.829 4.687 -50.788 4.635 -50.73 4.558 C -50.621 4.428 -50.436 4.224 -50.184 3.954 C -50.583 4.575 -50.871 4.962 -50.871 4.962 L -50.871 5.598 C -50.871 5.598 -41.012 18.001 -39.104 20.545 C -37.196 23.089 -38.468 22.771 -36.242 25.633 C -34.015 28.495 -30.517 32.842 -30.305 33.266 C -30.093 33.69 -31.153 31.04 -30.729 30.828 C -30.305 30.616 -29.4 30.51 -30.277 29.344 C -31.153 28.177 -34.651 23.089 -34.439 22.771 C -34.227 22.453 -31.259 26.587 -31.153 25.845 C -31.047 25.103 -34.227 16.941 -34.227 16.941 C -34.227 16.941 -34.864 15.775 -35.076 15.351 C -35.288 14.927 -29.881 21.287 -29.351 21.287 C -28.821 21.287 -28.397 21.923 -29.351 20.227 C -30.305 18.531 -30.729 18.743 -30.729 18.319 C -30.729 17.895 -29.881 18.213 -30.199 17.259 C -30.517 16.305 -32.531 14.185 -32.531 12.701 C -32.531 11.216 -33.167 10.686 -33.803 9.732 C -34.439 8.778 -35.394 6.764 -35.394 6.446 C -35.394 6.128 -27.655 11.746 -27.231 12.276 C -26.807 12.807 -28.079 9.096 -28.503 7.612 C -28.927 6.128 -30.199 4.75 -30.835 3.796 C -31.471 2.842 -32.425 1.994 -33.167 1.04 C -33.909 0.086 -35.712 -1.292 -36.136 -1.928 C -36.56 -2.565 -35.182 -2.034 -34.121 -1.186 C -33.061 -0.338 -32.531 0.616 -32.107 0.51 C -31.683 0.404 -31.789 0.086 -32.213 -0.762 C -32.637 -1.61 -32.849 -2.776 -33.485 -3.943 C -34.121 -5.109 -34.439 -4.473 -34.121 -5.109 C -33.803 -5.745 -31.577 -5.109 -31.577 -5.745 C -31.577 -6.381 -32.001 -6.593 -32.849 -8.077 C -33.697 -9.561 -35.606 -10.363 -35.818 -10.893 C -35.828 -10.919 -35.229 -11.803 -35.047 -12.206 C -34.241 -13.987 -27.975 -20.184 -26.997 -21.706 C -26.227 -22.903 -21.422 -28.444 -19.64 -30.505 C -10.009 -23.633 -3.777 -15.135 -0.811 -3.322 C -2.112 -2.095 -3.651 -0.799 -3.845 -0.333 C -4.409 1.019 -5.735 3.965 -7.47 6.316 C -9.293 8.785 -11.083 11.304 -12.345 12.68 C -13.878 14.35 -21.443 24.482 -22.628 26.034 C -22.695 26.116 -24.074 28.328 -24.091 28.357 C -24.091 28.357 -24.042 28.292 -23.957 28.181 C -22.239 26.06 -4.721 7.412 -4.283 6.105 C -3.838 4.778 -0.995 2.009 0 0" style="fill-opacity: 1; fill: rgb(0, 0, 0); stroke-width: 0px;"/>
    </g>
  </g>
  <g style="clip-path: url(#clippath0);" transform="matrix(1, 0, 0, -1, -267.213989, 356.589905)">
    <g transform="translate(305.1098 306.2268)">
      <path d="M 0 0 C 0.306 0.354 0.571 0.668 0.738 0.891 C 1.374 1.739 0.738 2.163 0.738 2.163 C 0.738 2.163 0.218 1.997 -1.69 0.937 C -1.747 0.905 -1.806 0.869 -1.863 0.837" style="fill: rgb(0, 0, 0); fill-opacity: 1;"/>
    </g>
  </g>
  <g style="clip-path: url(#clippath0);" transform="matrix(1, 0, 0, -1, -267.213989, 356.589905)">
    <g transform="translate(302.0812 306.3531)">
      <path d="M 0 0 C -1.503 -0.98 -2.929 -2.16 -3.375 -3.058 C -3.732 -3.778 -3.914 -4.094 -4.183 -4.327" style="fill: rgb(0, 0, 0); fill-opacity: 1;"/>
    </g>
  </g>
  <g style="clip-path: url(#clippath0);" transform="matrix(1, 0, 0, -1, -267.213989, 356.589905)">
    <g transform="translate(316.6144 300.2681)">
      <path d="M 0 0 C -0.059 0.076 -0.099 0.129 -0.099 0.129 C -0.084 0.103 -0.047 0.056 0 0" style="fill: rgb(0, 0, 0); fill-opacity: 1;"/>
    </g>
  </g>
  <g style="clip-path: url(#clippath0);" transform="matrix(1, 0, 0, -1, -267.213989, 356.589905)">
    <g transform="translate(316.6144 300.2681)">
      <path d="M 0 0 C 0.147 -0.191 0.457 -0.593 0.865 -1.116 C 0.753 -0.932 0.646 -0.76 0.546 -0.604 C 0.293 -0.335 0.108 -0.13 0 0" style="fill: rgb(0, 0, 0); fill-opacity: 1;"/>
    </g>
  </g>
  <g style="clip-path: url(#clippath0);" transform="matrix(1, 0, 0, -1, -267.213989, 356.589905)">
    <g transform="translate(377.8887 321.1543)">
      <path d="M 0 0 L 0 16.297 C 0 16.659 0.329 16.84 0.988 16.84 L 1.877 16.84 C 2.403 16.84 2.749 16.691 2.914 16.396 L 7.581 8.297 L 8.223 6.741 L 8.865 8.148 L 13.532 16.396 C 13.696 16.691 14.042 16.84 14.569 16.84 L 15.384 16.84 C 16.042 16.84 16.371 16.659 16.371 16.297 L 16.371 0 C 16.371 -0.362 16.042 -0.544 15.384 -0.544 L 15.211 -0.544 C 14.552 -0.544 14.223 -0.362 14.223 0 L 14.223 13.284 L 9.26 4.642 C 9.145 4.428 8.963 4.321 8.717 4.321 L 7.729 4.321 C 7.482 4.321 7.301 4.428 7.186 4.642 L 2.148 13.433 L 2.148 0 C 2.148 -0.362 1.819 -0.544 1.161 -0.544 L 0.988 -0.544 C 0.329 -0.544 0 -0.362 0 0" style="fill: rgb(0, 0, 0); fill-opacity: 1;"/>
    </g>
  </g>
  <g style="clip-path: url(#clippath0);" transform="matrix(1, 0, 0, -1, -267.213989, 356.589905)">
    <g transform="translate(377.8887 321.1543)">
      <path d="M 0 0 L 0 16.297 C 0 16.659 0.329 16.84 0.988 16.84 L 1.877 16.84 C 2.403 16.84 2.749 16.691 2.914 16.396 L 7.581 8.297 L 8.223 6.741 L 8.865 8.148 L 13.532 16.396 C 13.696 16.691 14.042 16.84 14.569 16.84 L 15.384 16.84 C 16.042 16.84 16.371 16.659 16.371 16.297 L 16.371 0 C 16.371 -0.362 16.042 -0.544 15.384 -0.544 L 15.211 -0.544 C 14.552 -0.544 14.223 -0.362 14.223 0 L 14.223 13.284 L 9.26 4.642 C 9.145 4.428 8.963 4.321 8.717 4.321 L 7.729 4.321 C 7.482 4.321 7.301 4.428 7.186 4.642 L 2.148 13.433 L 2.148 0 C 2.148 -0.362 1.819 -0.544 1.161 -0.544 L 0.988 -0.544 C 0.329 -0.544 0 -0.362 0 0 Z" style="stroke-opacity: 1; stroke-miterlimit: 0; stroke-dashoffset: 0px; fill: rgb(0, 0, 0); stroke: rgb(0, 0, 0);"/>
    </g>
  </g>
  <g style="clip-path: url(#clippath0);" transform="matrix(1, 0, 0, -1, -267.213989, 356.589905)">
    <g transform="translate(405.5373 324.166)">
      <path d="M 0 0 C 0.913 -1.185 2.242 -1.777 3.987 -1.777 C 5.732 -1.777 7.065 -1.185 7.987 0 C 8.909 1.186 9.37 2.91 9.37 5.174 C 9.37 7.437 8.909 9.149 7.987 10.31 C 7.065 11.47 5.732 12.051 3.987 12.051 C 2.242 12.051 0.913 11.47 0 10.31 C -0.914 9.149 -1.371 7.437 -1.371 5.174 C -1.371 2.91 -0.914 1.186 0 0 M -1.667 -1.395 C -2.968 0.111 -3.618 2.305 -3.618 5.186 C -3.618 8.066 -2.972 10.244 -1.68 11.717 C -0.388 13.19 1.502 13.927 3.987 13.927 C 6.473 13.927 8.366 13.19 9.667 11.717 C 10.967 10.244 11.617 8.066 11.617 5.186 C 11.617 2.305 10.967 0.111 9.667 -1.395 C 8.366 -2.901 6.478 -3.654 4 -3.654 C 1.522 -3.654 -0.367 -2.901 -1.667 -1.395" style="fill-opacity: 1; stroke: rgb(0, 0, 0); fill: rgb(0, 0, 0); stroke-width: 0px;"/>
    </g>
  </g>
  <g style="clip-path: url(#clippath0);" transform="matrix(1, 0, 0, -1, -267.213989, 356.589905)">
    <g transform="translate(424.5617 326.1914)">
      <path d="M 0 0 L 0 11.26 C 0 11.622 0.329 11.803 0.987 11.803 L 1.185 11.803 C 1.843 11.803 2.173 11.622 2.173 11.26 L 2.173 -0.074 C 2.173 -1.161 2.604 -2.054 3.469 -2.753 C 4.333 -3.453 5.424 -3.803 6.741 -3.803 C 8.058 -3.803 9.148 -3.453 10.013 -2.753 C 10.877 -2.054 11.309 -1.161 11.309 -0.074 L 11.309 11.26 C 11.309 11.622 11.638 11.803 12.297 11.803 L 12.494 11.803 C 13.152 11.803 13.481 11.622 13.481 11.26 L 13.481 0 C 13.481 -1.795 12.897 -3.189 11.729 -4.186 C 10.56 -5.182 8.893 -5.68 6.729 -5.68 C 4.563 -5.68 2.901 -5.182 1.74 -4.186 C 0.58 -3.189 0 -1.795 0 0" style="fill-opacity: 1; stroke: rgb(0, 0, 0); fill: rgb(0, 0, 0); stroke-width: 0px;"/>
    </g>
  </g>
  <g style="clip-path: url(#clippath0);" transform="matrix(1, 0, 0, -1, -267.213989, 356.589905)">
    <g transform="translate(446.2668 321.1543)">
      <path d="M 0 0 L 0 16.297 C 0 16.659 0.329 16.84 0.987 16.84 L 1.506 16.84 C 1.967 16.84 2.313 16.684 2.543 16.371 L 10.42 4.469 L 11.161 3.086 L 11.161 16.297 C 11.161 16.659 11.49 16.84 12.148 16.84 L 12.321 16.84 C 12.979 16.84 13.309 16.659 13.309 16.297 L 13.309 0 C 13.309 -0.362 12.979 -0.544 12.321 -0.544 L 11.827 -0.544 C 11.399 -0.544 11.111 -0.429 10.963 -0.198 L 2.814 12.099 L 2.147 13.358 L 2.147 0 C 2.147 -0.362 1.818 -0.544 1.16 -0.544 L 0.987 -0.544 C 0.329 -0.544 0 -0.362 0 0" style="fill-opacity: 1; stroke: rgb(0, 0, 0); fill: rgb(0, 0, 0); stroke-width: 0px;"/>
    </g>
  </g>
  <g style="clip-path: url(#clippath0);" transform="matrix(1, 0, 0, -1, -267.213989, 356.589905)">
    <g transform="translate(471.4767 321.1543)">
      <path d="M 0 0 L 0 14.914 L -4.741 14.914 C -5.07 14.914 -5.234 15.161 -5.234 15.655 L -5.234 16.05 C -5.234 16.544 -5.07 16.791 -4.741 16.791 L 6.84 16.791 C 7.169 16.791 7.334 16.544 7.334 16.05 L 7.334 15.655 C 7.334 15.161 7.169 14.914 6.84 14.914 L 2.173 14.914 L 2.173 0 C 2.173 -0.362 1.844 -0.544 1.186 -0.544 L 0.988 -0.544 C 0.329 -0.544 0 -0.362 0 0" style="fill-opacity: 1; stroke: rgb(0, 0, 0); fill: rgb(0, 0, 0); stroke-width: 0px;"/>
    </g>
  </g>
  <g style="clip-path: url(#clippath0);" transform="matrix(1, 0, 0, -1, -267.213989, 356.589905)">
    <g transform="translate(487.8244 326.9316)">
      <path d="M 0 0 L 5.901 0 L 3.309 7.358 L 2.987 8.791 L 2.593 7.358 Z M -4.272 -5.901 C -4.272 -5.819 -4.247 -5.703 -4.198 -5.556 L 1.654 10.668 C 1.736 10.931 2.065 11.063 2.642 11.063 L 3.358 11.063 C 3.934 11.063 4.263 10.931 4.346 10.668 L 10.198 -5.58 C 10.247 -5.695 10.271 -5.803 10.271 -5.901 C 10.271 -6.182 9.918 -6.321 9.21 -6.321 L 9.013 -6.321 C 8.437 -6.321 8.107 -6.189 8.024 -5.926 L 6.568 -1.876 L -0.691 -1.876 L -2.099 -5.926 C -2.182 -6.189 -2.511 -6.321 -3.087 -6.321 L -3.21 -6.321 C -3.918 -6.321 -4.272 -6.182 -4.272 -5.901" style="fill-opacity: 1; stroke: rgb(0, 0, 0); fill: rgb(0, 0, 0); stroke-width: 0px;"/>
    </g>
  </g>
  <g style="clip-path: url(#clippath0);" transform="matrix(1, 0, 0, -1, -267.213989, 356.589905)">
    <g transform="translate(504.7385 321.1543)">
      <path d="M 0 0 L 0 16.297 C 0 16.659 0.329 16.84 0.987 16.84 L 1.185 16.84 C 1.843 16.84 2.173 16.659 2.173 16.297 L 2.173 0 C 2.173 -0.362 1.843 -0.544 1.185 -0.544 L 0.987 -0.544 C 0.329 -0.544 0 -0.362 0 0" style="fill-opacity: 1; stroke: rgb(0, 0, 0); fill: rgb(0, 0, 0); stroke-width: 0px;"/>
    </g>
  </g>
  <g style="clip-path: url(#clippath0);" transform="matrix(1, 0, 0, -1, -267.213989, 356.589905)">
    <g transform="translate(515.4797 321.1543)">
      <path d="M -1 0 L -1 16.297 C -1 16.659 -0.671 16.84 -0.013 16.84 L 0.506 16.84 C 0.967 16.84 1.313 16.684 1.543 16.371 L 9.42 4.469 L 10.161 3.086 L 10.161 16.297 C 10.161 16.659 10.49 16.84 11.148 16.84 L 11.321 16.84 C 11.979 16.84 12.309 16.659 12.309 16.297 L 12.309 0 C 12.309 -0.362 11.979 -0.544 11.321 -0.544 L 10.827 -0.544 C 10.399 -0.544 10.111 -0.429 9.963 -0.198 L 1.814 12.099 L 1.147 13.358 L 1.147 0 C 1.147 -0.362 0.818 -0.544 0.16 -0.544 L -0.013 -0.544 C -0.671 -0.544 -1 -0.362 -1 0" style="fill-opacity: 1; stroke: rgb(0, 0, 0); fill: rgb(0, 0, 0); stroke-width: 0px;"/>
    </g>
  </g>
  <g style="clip-path: url(#clippath0);" transform="matrix(1, 0, 0, -1, -267.213989, 356.589905)">
    <g transform="translate(384.4779 298.0996)">
      <path d="M 0 0 L 0 16.05 C 0 16.412 0.329 16.593 0.988 16.593 L 1.186 16.593 C 1.844 16.593 2.173 16.412 2.173 16.05 L 2.173 1.136 L 9.963 1.136 C 10.292 1.136 10.458 0.889 10.458 0.395 L 10.458 0 C 10.458 -0.494 10.292 -0.741 9.963 -0.741 L 0.741 -0.741 C 0.247 -0.741 0 -0.494 0 0" style="fill: rgb(0, 0, 0); fill-opacity: 1;"/>
    </g>
  </g>
  <g style="clip-path: url(#clippath0);" transform="matrix(1, 0, 0, -1, -267.213989, 356.589905)">
    <g transform="translate(384.4779 298.0996)">
      <path d="M 0 0 L 0 16.05 C 0 16.412 0.329 16.593 0.988 16.593 L 1.186 16.593 C 1.844 16.593 2.173 16.412 2.173 16.05 L 2.173 1.136 L 9.963 1.136 C 10.292 1.136 10.458 0.889 10.458 0.395 L 10.458 0 C 10.458 -0.494 10.292 -0.741 9.963 -0.741 L 0.741 -0.741 C 0.247 -0.741 0 -0.494 0 0 Z" style="stroke-opacity: 1; stroke-miterlimit: 0; stroke-dashoffset: 0px; fill: rgb(0, 0, 0); stroke: rgb(0, 0, 0);"/>
    </g>
  </g>
  <g style="clip-path: url(#clippath0);" transform="matrix(1, 0, 0, -1, -267.213989, 356.589905)">
    <g transform="translate(401.9191 298.0996)">
      <path d="M 0 0 L 0 15.803 C 0 16.297 0.247 16.544 0.741 16.544 L 9.358 16.544 C 9.688 16.544 9.853 16.297 9.853 15.803 L 9.853 15.408 C 9.853 14.914 9.688 14.667 9.358 14.667 L 2.173 14.667 L 2.173 9.037 L 8.618 9.037 C 8.946 9.037 9.112 8.79 9.112 8.296 L 9.112 7.901 C 9.112 7.407 8.946 7.16 8.618 7.16 L 2.173 7.16 L 2.173 1.136 L 9.384 1.136 C 9.712 1.136 9.878 0.889 9.878 0.395 L 9.878 0 C 9.878 -0.494 9.712 -0.741 9.384 -0.741 L 0.741 -0.741 C 0.247 -0.741 0 -0.494 0 0" style="fill-opacity: 1; stroke: rgb(0, 0, 0); fill: rgb(0, 0, 0); stroke-width: 0px;"/>
    </g>
  </g>
  <g style="clip-path: url(#clippath0);" transform="matrix(1, 0, 0, -1, -267.213989, 356.589905)">
    <g transform="translate(418.3644 305.8525)">
      <path d="M 0 0 C 0 5.959 2.667 8.938 8.001 8.938 C 9.186 8.938 10.269 8.77 11.248 8.433 C 12.227 8.095 12.717 7.754 12.717 7.408 C 12.717 7.177 12.614 6.881 12.408 6.519 C 12.202 6.156 12.025 5.976 11.877 5.976 C 11.844 5.976 11.668 6.066 11.347 6.247 C 11.025 6.429 10.568 6.609 9.976 6.791 C 9.384 6.972 8.741 7.062 8.05 7.062 C 5.959 7.062 4.47 6.485 3.581 5.334 C 2.691 4.182 2.247 2.478 2.247 0.223 C 2.247 -4.437 4.091 -6.766 7.778 -6.766 C 9.079 -6.766 10.141 -6.659 10.964 -6.444 L 10.964 -1.457 L 8.075 -1.457 C 7.745 -1.457 7.581 -1.21 7.581 -0.716 L 7.581 -0.321 C 7.581 0.173 7.745 0.42 8.075 0.42 L 12.396 0.42 C 12.89 0.42 13.137 0.173 13.137 -0.321 L 13.137 -6.864 C 13.137 -8.05 11.301 -8.643 7.63 -8.643 C 2.544 -8.643 0 -5.762 0 0" style="fill-opacity: 1; stroke: rgb(0, 0, 0); fill: rgb(0, 0, 0); stroke-width: 0px;"/>
    </g>
  </g>
  <g style="clip-path: url(#clippath0);" transform="matrix(1, 0, 0, -1, -267.213989, 356.589905)">
    <g transform="translate(442.0695 303.6299)">
      <path d="M 0 0 L 5.901 0 L 3.309 7.358 L 2.987 8.791 L 2.593 7.358 Z M -4.272 -5.901 C -4.272 -5.819 -4.247 -5.703 -4.198 -5.556 L 1.654 10.668 C 1.736 10.931 2.065 11.063 2.642 11.063 L 3.358 11.063 C 3.934 11.063 4.263 10.931 4.346 10.668 L 10.198 -5.58 C 10.247 -5.695 10.271 -5.803 10.271 -5.901 C 10.271 -6.182 9.918 -6.321 9.21 -6.321 L 9.013 -6.321 C 8.437 -6.321 8.107 -6.189 8.024 -5.926 L 6.568 -1.876 L -0.691 -1.876 L -2.099 -5.926 C -2.182 -6.189 -2.511 -6.321 -3.087 -6.321 L -3.21 -6.321 C -3.918 -6.321 -4.272 -6.182 -4.272 -5.901" style="fill-opacity: 1; stroke: rgb(0, 0, 0); fill: rgb(0, 0, 0); stroke-width: 0px;"/>
    </g>
  </g>
  <g style="clip-path: url(#clippath0);" transform="matrix(1, 0, 0, -1, -267.213989, 356.589905)">
    <g transform="translate(457.9953 306.001)">
      <path d="M 0 0 C 0 5.86 2.667 8.79 8.001 8.79 C 9.186 8.79 10.269 8.621 11.248 8.284 C 12.227 7.946 12.717 7.605 12.717 7.26 C 12.717 7.028 12.614 6.732 12.408 6.37 C 12.202 6.008 12.025 5.827 11.877 5.827 C 11.844 5.827 11.668 5.918 11.347 6.099 C 11.025 6.28 10.568 6.461 9.976 6.643 C 9.384 6.823 8.741 6.914 8.05 6.914 C 6.058 6.914 4.593 6.362 3.654 5.26 C 2.717 4.156 2.247 2.407 2.247 0.012 C 2.247 -2.383 2.712 -4.136 3.643 -5.247 C 4.572 -6.358 6.009 -6.914 7.951 -6.914 C 8.692 -6.914 9.392 -6.812 10.05 -6.605 C 10.708 -6.399 11.219 -6.194 11.581 -5.988 C 11.943 -5.782 12.149 -5.68 12.198 -5.68 C 12.347 -5.68 12.527 -5.86 12.741 -6.223 C 12.955 -6.585 13.063 -6.849 13.063 -7.013 C 13.063 -7.392 12.548 -7.782 11.52 -8.186 C 10.49 -8.589 9.301 -8.791 7.951 -8.791 C 5.235 -8.791 3.23 -8.079 1.938 -6.655 C 0.646 -5.231 0 -3.013 0 0" style="fill-opacity: 1; stroke: rgb(0, 0, 0); fill: rgb(0, 0, 0); stroke-width: 0px;"/>
    </g>
  </g>
  <g style="clip-path: url(#clippath0);" transform="matrix(1, 0, 0, -1, -267.213989, 356.589905)">
    <g transform="translate(481.6262 297.8525)">
      <path d="M 0 0 L 0 8.37 L -5.161 15.976 C -5.293 16.157 -5.358 16.305 -5.358 16.42 C -5.358 16.7 -4.979 16.84 -4.223 16.84 L -3.951 16.84 C -3.407 16.84 -3.054 16.717 -2.889 16.47 L 1.16 10.396 L 5.309 16.494 C 5.457 16.725 5.868 16.84 6.544 16.84 C 7.219 16.84 7.556 16.7 7.556 16.42 C 7.556 16.354 7.49 16.206 7.358 15.976 L 2.173 8.297 L 2.173 0 C 2.173 -0.362 1.844 -0.544 1.186 -0.544 L 0.987 -0.544 C 0.329 -0.544 0 -0.362 0 0" style="fill-opacity: 1; stroke: rgb(0, 0, 0); fill: rgb(0, 0, 0); stroke-width: 0px;"/>
    </g>
  </g>
  <g style="clip-path: url(#clippath0);" transform="matrix(1, 0, 0, -1, -267.213989, 356.589905)">
    <g transform="translate(386.2498 283.291)">
      <path d="M 0 0 L 3.852 0 C 4.478 0 5.095 0.197 5.704 0.593 C 6.033 0.806 6.305 1.14 6.519 1.593 C 6.732 2.045 6.84 2.584 6.84 3.21 C 6.84 4.312 6.51 5.082 5.852 5.519 C 5.193 5.954 4.411 6.173 3.506 6.173 L 0 6.173 Z M -2.173 -8.741 L -2.173 7.309 C -2.173 7.803 -1.926 8.05 -1.432 8.05 L 3.58 8.05 C 4.848 8.05 6.016 7.77 7.086 7.21 C 7.695 6.897 8.181 6.398 8.543 5.716 C 8.905 5.032 9.087 4.23 9.087 3.309 C 9.087 2.387 8.942 1.601 8.655 0.95 C 8.366 0.3 8.021 -0.198 7.618 -0.544 C 7.214 -0.89 6.749 -1.169 6.222 -1.383 C 5.416 -1.713 4.617 -1.877 3.827 -1.877 L 0 -1.877 L 0 -8.741 C 0 -9.104 -0.33 -9.285 -0.988 -9.285 L -1.186 -9.285 C -1.844 -9.285 -2.173 -9.104 -2.173 -8.741" style="fill: rgb(0, 0, 0); fill-opacity: 1;"/>
    </g>
  </g>
  <g style="clip-path: url(#clippath0);" transform="matrix(1, 0, 0, -1, -267.213989, 356.589905)">
    <g transform="translate(386.2498 283.291)">
      <path d="M 0 0 L 3.852 0 C 4.478 0 5.095 0.197 5.704 0.593 C 6.033 0.806 6.305 1.14 6.519 1.593 C 6.732 2.045 6.84 2.584 6.84 3.21 C 6.84 4.312 6.51 5.082 5.852 5.519 C 5.193 5.954 4.411 6.173 3.506 6.173 L 0 6.173 L 0 0 Z M -2.173 -8.741 L -2.173 7.309 C -2.173 7.803 -1.926 8.05 -1.432 8.05 L 3.58 8.05 C 4.848 8.05 6.016 7.77 7.086 7.21 C 7.695 6.897 8.181 6.398 8.543 5.716 C 8.905 5.032 9.087 4.23 9.087 3.309 C 9.087 2.387 8.942 1.601 8.655 0.95 C 8.366 0.3 8.021 -0.198 7.618 -0.544 C 7.214 -0.89 6.749 -1.169 6.222 -1.383 C 5.416 -1.713 4.617 -1.877 3.827 -1.877 L 0 -1.877 L 0 -8.741 C 0 -9.104 -0.33 -9.285 -0.988 -9.285 L -1.186 -9.285 C -1.844 -9.285 -2.173 -9.104 -2.173 -8.741 Z" style="stroke-opacity: 1; stroke-miterlimit: 0; stroke-dashoffset: 0px; fill: rgb(0, 0, 0); stroke: rgb(0, 0, 0);"/>
    </g>
  </g>
  <g style="clip-path: url(#clippath0);" transform="matrix(1, 0, 0, -1, -267.213989, 356.589905)">
    <g transform="translate(404.0925 283.5381)">
      <path d="M 0 0 L 3.259 0 C 4.132 0 4.877 0.3 5.494 0.9 C 6.111 1.502 6.42 2.25 6.42 3.147 C 6.42 4.045 6.123 4.732 5.531 5.21 C 4.938 5.687 4.123 5.926 3.086 5.926 L 0 5.926 Z M -2.173 -8.988 L -2.173 7.062 C -2.173 7.556 -1.926 7.803 -1.433 7.803 L 2.716 7.803 C 4.691 7.803 6.177 7.452 7.173 6.753 C 8.169 6.053 8.667 4.946 8.667 3.432 C 8.667 1.407 7.72 0.016 5.827 -0.741 L 5.827 -0.84 C 6.305 -1.005 6.704 -1.326 7.024 -1.803 C 7.346 -2.28 7.687 -2.988 8.05 -3.927 L 9.976 -8.791 C 10.025 -8.939 10.05 -9.055 10.05 -9.137 C 10.05 -9.4 9.704 -9.532 9.013 -9.532 L 8.766 -9.532 C 8.206 -9.532 7.877 -9.4 7.778 -9.137 L 5.901 -4.297 C 5.539 -3.358 5.087 -2.721 4.543 -2.384 C 4 -2.046 3.226 -1.877 2.222 -1.877 L 0 -1.877 L 0 -8.988 C 0 -9.351 -0.33 -9.532 -0.988 -9.532 L -1.186 -9.532 C -1.844 -9.532 -2.173 -9.351 -2.173 -8.988" style="fill-opacity: 1; stroke: rgb(0, 0, 0); fill: rgb(0, 0, 0); stroke-width: 0px;"/>
    </g>
  </g>
  <g style="clip-path: url(#clippath0);" transform="matrix(1, 0, 0, -1, -267.213989, 356.589905)">
    <g transform="translate(423.5622 277.5615)">
      <path d="M 0 0 C 0.913 -1.185 2.242 -1.777 3.987 -1.777 C 5.732 -1.777 7.065 -1.185 7.987 0 C 8.909 1.186 9.37 2.91 9.37 5.174 C 9.37 7.437 8.909 9.149 7.987 10.31 C 7.065 11.47 5.732 12.051 3.987 12.051 C 2.242 12.051 0.913 11.47 0 10.31 C -0.914 9.149 -1.371 7.437 -1.371 5.174 C -1.371 2.91 -0.914 1.186 0 0 M -1.667 -1.395 C -2.968 0.111 -3.618 2.305 -3.618 5.186 C -3.618 8.066 -2.972 10.244 -1.68 11.717 C -0.388 13.19 1.502 13.927 3.987 13.927 C 6.473 13.927 8.366 13.19 9.667 11.717 C 10.967 10.244 11.617 8.066 11.617 5.186 C 11.617 2.305 10.967 0.111 9.667 -1.395 C 8.366 -2.901 6.478 -3.654 4 -3.654 C 1.522 -3.654 -0.367 -2.901 -1.667 -1.395" style="fill-opacity: 1; stroke: rgb(0, 0, 0); fill: rgb(0, 0, 0); stroke-width: 0px;"/>
    </g>
  </g>
  <g style="clip-path: url(#clippath0);" transform="matrix(1, 0, 0, -1, -267.213989, 356.589905)">
    <g transform="translate(440.6862 274.6973)">
      <path d="M 0 0 C 0 0.165 0.049 0.433 0.147 0.803 C 0.247 1.173 0.378 1.358 0.543 1.358 C 0.56 1.358 0.744 1.321 1.099 1.247 C 1.452 1.173 1.786 1.137 2.099 1.137 C 3.316 1.137 4.197 1.375 4.74 1.853 C 5.284 2.33 5.556 3.104 5.556 4.174 L 5.556 16.149 C 5.556 16.512 5.885 16.692 6.543 16.692 L 6.741 16.692 C 7.399 16.692 7.729 16.512 7.729 16.149 L 7.729 4.42 C 7.729 0.947 5.983 -0.79 2.494 -0.79 C 0.831 -0.79 0 -0.526 0 0" style="fill-opacity: 1; stroke: rgb(0, 0, 0); fill: rgb(0, 0, 0); stroke-width: 0px;"/>
    </g>
  </g>
  <g style="clip-path: url(#clippath0);" transform="matrix(1, 0, 0, -1, -267.213989, 356.589905)">
    <g transform="translate(456.8102 274.7969)">
      <path d="M 0 0 L 0 15.803 C 0 16.297 0.247 16.544 0.74 16.544 L 9.358 16.544 C 9.688 16.544 9.852 16.297 9.852 15.803 L 9.852 15.408 C 9.852 14.914 9.688 14.667 9.358 14.667 L 2.173 14.667 L 2.173 9.037 L 8.617 9.037 C 8.946 9.037 9.111 8.79 9.111 8.296 L 9.111 7.901 C 9.111 7.407 8.946 7.16 8.617 7.16 L 2.173 7.16 L 2.173 1.136 L 9.383 1.136 C 9.712 1.136 9.877 0.889 9.877 0.395 L 9.877 0 C 9.877 -0.494 9.712 -0.741 9.383 -0.741 L 0.74 -0.741 C 0.247 -0.741 0 -0.494 0 0" style="fill-opacity: 1; stroke: rgb(0, 0, 0); fill: rgb(0, 0, 0); stroke-width: 0px;"/>
    </g>
  </g>
  <g style="clip-path: url(#clippath0);" transform="matrix(1, 0, 0, -1, -267.213989, 356.589905)">
    <g transform="translate(473.2546 282.6982)">
      <path d="M 0 0 C 0 5.86 2.667 8.79 8.001 8.79 C 9.186 8.79 10.269 8.621 11.248 8.284 C 12.227 7.946 12.717 7.605 12.717 7.26 C 12.717 7.028 12.614 6.732 12.408 6.37 C 12.202 6.008 12.025 5.827 11.877 5.827 C 11.844 5.827 11.668 5.918 11.347 6.099 C 11.025 6.28 10.568 6.461 9.976 6.643 C 9.384 6.823 8.741 6.914 8.05 6.914 C 6.058 6.914 4.593 6.362 3.654 5.26 C 2.717 4.156 2.247 2.407 2.247 0.012 C 2.247 -2.383 2.712 -4.136 3.643 -5.247 C 4.572 -6.358 6.009 -6.914 7.951 -6.914 C 8.692 -6.914 9.392 -6.812 10.05 -6.605 C 10.708 -6.399 11.219 -6.194 11.581 -5.988 C 11.943 -5.782 12.149 -5.68 12.198 -5.68 C 12.347 -5.68 12.527 -5.86 12.741 -6.223 C 12.955 -6.585 13.063 -6.849 13.063 -7.013 C 13.063 -7.392 12.548 -7.782 11.52 -8.186 C 10.49 -8.589 9.301 -8.791 7.951 -8.791 C 5.235 -8.791 3.23 -8.079 1.938 -6.655 C 0.646 -5.231 0 -3.013 0 0" style="fill-opacity: 1; stroke: rgb(0, 0, 0); fill: rgb(0, 0, 0); stroke-width: 0px;"/>
    </g>
  </g>
  <g style="clip-path: url(#clippath0);" transform="matrix(1, 0, 0, -1, -267.213989, 356.589905)">
    <g transform="translate(496.8112 274.5498)">
      <path d="M 0 0 L 0 14.914 L -4.741 14.914 C -5.07 14.914 -5.234 15.161 -5.234 15.655 L -5.234 16.05 C -5.234 16.544 -5.07 16.791 -4.741 16.791 L 6.84 16.791 C 7.169 16.791 7.334 16.544 7.334 16.05 L 7.334 15.655 C 7.334 15.161 7.169 14.914 6.84 14.914 L 2.173 14.914 L 2.173 0 C 2.173 -0.362 1.844 -0.544 1.186 -0.544 L 0.988 -0.544 C 0.329 -0.544 0 -0.362 0 0" style="fill-opacity: 1; stroke: rgb(0, 0, 0); fill: rgb(0, 0, 0); stroke-width: 0px;"/>
    </g>
  </g>
</svg>