<svg xmlns="http://www.w3.org/2000/svg" xmlns:xlink="http://www.w3.org/1999/xlink" viewBox="0 0 261.575 101.18" width="80" height="40"><defs>
    <style type="text/css"><![CDATA[
      g {
        fill:white;
      }
    ]]></style>
<clipPath id="A"><path d="M0 612h792V0H0z" fill="none" clip-rule="nonzero"/></clipPath><path id="B" d="M405.537 324.166c.913-1.185 2.242-1.777 3.987-1.777s3.078.592 4 1.777 1.383 2.91 1.383 5.174-.461 3.975-1.383 5.136-2.255 1.741-4 1.741-3.074-.581-3.987-1.741-1.371-2.873-1.371-5.136.457-3.988 1.371-5.174m-1.667-1.395c-1.301 1.506-1.951 3.7-1.951 6.581s.646 5.058 1.938 6.531 3.182 2.21 5.667 2.21 4.379-.737 5.68-2.21 1.95-3.651 1.95-6.531-.65-5.075-1.95-6.581-3.189-2.259-5.667-2.259-4.367.753-5.667 2.259"/><path id="C" d="M446.267 321.154v16.297c0 .362.329.543.987.543h.519c.461 0 .807-.156 1.037-.469l7.877-11.902.741-1.383v13.211c0 .362.329.543.987.543h.173c.658 0 .988-.181.988-.543v-16.297c0-.362-.33-.544-.988-.544h-.494c-.428 0-.716.115-.864.346l-8.149 12.297-.667 1.259v-13.358c0-.362-.329-.544-.987-.544h-.173c-.658 0-.987.182-.987.544"/><path id="D" d="M487.824 326.932h5.901l-2.592 7.358-.322 1.433-.394-1.433zm-4.272-5.901c0 .082.025.198.074.345l5.852 16.224c.082.263.411.395.988.395h.716c.576 0 .905-.132.988-.395l5.852-16.248c.049-.115.073-.223.073-.321 0-.281-.353-.42-1.061-.42h-.197c-.576 0-.906.132-.989.395l-1.456 4.05h-7.259l-1.408-4.05c-.083-.263-.412-.395-.988-.395h-.123c-.708 0-1.062.139-1.062.42"/><path id="E" d="M457.995 306.001c0 5.86 2.667 8.79 8.001 8.79 1.185 0 2.268-.169 3.247-.506s1.469-.679 1.469-1.024c0-.232-.103-.528-.309-.89s-.383-.543-.531-.543c-.033 0-.209.091-.53.272s-.779.362-1.371.544-1.235.271-1.926.271c-1.992 0-3.457-.552-4.396-1.654s-1.407-2.853-1.407-5.248.465-4.148 1.396-5.259 2.366-1.667 4.308-1.667c.741 0 1.441.102 2.099.309s1.169.411 1.531.617.568.308.617.308c.149 0 .329-.18.543-.543s.322-.626.322-.79c0-.379-.515-.769-1.543-1.173s-2.219-.605-3.569-.605c-2.716 0-4.721.712-6.013 2.136s-1.938 3.642-1.938 6.655"/></defs><g transform="matrix(1 0 0 -1 -267.213989 356.589905)"><g class="B F"><path d="M302.081 306.353l1.166.71c-.441 0-.812-.228-1.166-.71"/></g><g class="B C"><path d="M367.344 295.71a50.78 50.78 0 0 1 1.05 10.29c0 27.94-22.65 50.59-50.59 50.59s-50.59-22.65-50.59-50.59c0-8.369 2.042-16.256 5.643-23.208l12.133 7.419c1.757 1.097 3.77 3.284 5.646 5.404 1.995 2.254 3.833 4.432 5.035 5.142 1.34.792 1.864.955 2.227 1.269.27.233.451.55.808 1.269.446.898 1.872 2.078 3.375 3.058.354.482.726.711 1.166.711.057.032.116.068.172.1 1.908 1.06 2.429 1.226 2.429 1.226s.636-.424 0-1.272c-.168-.223-.432-.537-.738-.891-.857-.994-2.052-2.328-2.443-3.031-.53-.955-1.802-2.121-2.65-3.181s-1.06-1.59-1.484-2.12 1.484 1.484 2.862 2.65 2.544 2.545 3.074 3.181.637-.53-.848-3.075c-1.305-2.237-1.871-1.852-1.989-2.952a4.93 4.93 0 0 1-.025-.546c0-1.802.53 0 0-1.802s-1.484-1.802-1.484-3.074.318-1.166 0-2.544-1.272-2.65-2.438-4.241-1.908-1.964-3.286-3.791-3.71-4.477-4.24-6.385-.036-1.272-1.555-2.968l-1.52-1.696s6.891 2.332 7.633 3.18 1.06-.106.742-1.272-.106-1.272 1.272.106 6.042 5.406 6.36 5.3-.848-.318-1.378-2.544-3.18-5.831-3.816-6.679-.636-.636-1.378-1.908-2.65-2.862-2.65-3.392c0-.224-.196-.996-.311-1.834 7.201-3.942 15.457-6.199 24.246-6.199 10.582 0 20.401 3.254 28.522 8.809l-2.137 3.257c-.328.426-2.426 2.245-3.025 3.007s-1.828 2.133-1.991 2.389 2.89-5.406 2.562-4.862c-.467.773-2.607 2.844-3.173 3.947s-1.989 3.57-2.459 4.252-2.203 2.323-2.446 2.785-4.105 3.78-4.41 4.512c-.166.398-.439.901-.776 1.464-.711.54-1.437 1.208-2.033 2.027-1.696 2.332.848.742-1.908 2.756s-4.876 4.983-5.83 7.103c-.391.869-.832 1.657-1.221 2.296l-.865 1.116c-.046.056-.083.103-.099.129l.099-.129c.109-.13.294-.334.546-.604-.399.621-.687 1.008-.687 1.008v.636l11.767 14.947c1.908 2.544.636 2.226 2.862 5.088l5.937 7.633c.212.424-.848-2.226-.424-2.438s1.329-.318.452-1.484-4.374-6.255-4.162-6.573 3.18 3.816 3.286 3.074-3.074-8.904-3.074-8.904l-.849-1.59c-.212-.424 5.195 5.936 5.725 5.936s.954.636 0-1.06-1.378-1.484-1.378-1.908.848-.106.53-1.06-2.332-3.074-2.332-4.558-.636-2.015-1.272-2.969-1.591-2.968-1.591-3.286 7.739 5.3 8.163 5.83-.848-3.18-1.272-4.664-1.696-2.862-2.332-3.816-1.59-1.802-2.332-2.756-2.545-2.332-2.969-2.968.954-.106 2.015.742 1.59 1.802 2.014 1.696.318-.424-.106-1.272-.636-2.014-1.272-3.181-.954-.53-.636-1.166 2.544 0 2.544-.636-.424-.848-1.272-2.332-2.757-2.286-2.969-2.816c-.01-.026.589-.91.771-1.313.806-1.781 7.072-7.978 8.05-9.5.77-1.197 5.575-6.738 7.357-8.799 9.631 6.872 15.863 15.37 18.829 27.183-1.301 1.227-2.84 2.523-3.034 2.989-.564 1.352-1.89 4.298-3.625 6.649-1.823 2.469-3.613 4.988-4.875 6.364-1.533 1.67-9.098 11.802-10.283 13.354a178.56 178.56 0 0 0-1.463 2.323l.134-.176c1.718-2.121 19.236-20.769 19.674-22.076.445-1.327 3.288-4.096 4.283-6.105"/></g><g class="B C"><path d="M305.11 306.227l.738.891c.636.848 0 1.272 0 1.272s-.52-.166-2.428-1.226l-.173-.1"/></g><g class="B C"><path d="M302.081 306.353c-1.503-.98-2.929-2.16-3.375-3.058-.357-.72-.539-1.036-.808-1.269"/></g><g class="B C"><path d="M316.614 300.268l-.099.129a1.19 1.19 0 0 1 .099-.129"/></g><g class="B C"><path d="M316.614 300.268l.865-1.116-.319.512-.546.604"/></g><g class="B F"><path d="M377.889 321.154v16.297c0 .362.329.543.988.543h.889c.526 0 .872-.149 1.037-.444l4.667-8.099.642-1.556.642 1.407 4.667 8.248c.164.295.51.444 1.037.444h.815c.658 0 .987-.181.987-.543v-16.297c0-.362-.329-.544-.987-.544h-.173c-.659 0-.988.182-.988.544v13.284l-4.963-8.642c-.115-.214-.297-.321-.543-.321h-.988c-.247 0-.428.107-.543.321l-5.038 8.791v-13.433c0-.362-.329-.544-.987-.544h-.173c-.659 0-.988.182-.988.544"/></g><g class="B C D G H"><path d="M377.889 321.154v16.297c0 .362.329.543.988.543h.889c.526 0 .872-.149 1.037-.444l4.667-8.099.642-1.556.642 1.407 4.667 8.248c.164.295.51.444 1.037.444h.815c.658 0 .987-.181.987-.543v-16.297c0-.362-.329-.544-.987-.544h-.173c-.659 0-.988.182-.988.544v13.284l-4.963-8.642c-.115-.214-.297-.321-.543-.321h-.988c-.247 0-.428.107-.543.321l-5.038 8.791v-13.433c0-.362-.329-.544-.987-.544h-.173c-.659 0-.988.182-.988.544z"/></g><g class="B C D E"><use xlink:href="#B"/></g><g class="B C D E"><path d="M424.562 326.191v11.26c0 .362.329.543.987.543h.198c.658 0 .988-.181.988-.543v-11.334a3.29 3.29 0 0 1 1.296-2.679c.864-.7 1.955-1.05 3.272-1.05s2.407.35 3.272 1.05 1.296 1.592 1.296 2.679v11.334c0 .362.329.543.988.543h.197c.658 0 .987-.181.987-.543v-11.26c0-1.795-.584-3.189-1.752-4.186s-2.836-1.494-5-1.494-3.828.498-4.989 1.494-1.74 2.391-1.74 4.186"/></g><g class="B C D E"><use xlink:href="#C"/></g><g class="B C D E"><path d="M471.477 321.154v14.914h-4.741c-.329 0-.493.247-.493.741v.395c0 .494.164.741.493.741h11.581c.329 0 .494-.247.494-.741v-.395c0-.494-.165-.741-.494-.741h-4.667v-14.914c0-.362-.329-.544-.987-.544h-.198c-.659 0-.988.182-.988.544"/></g><g class="B C D E"><use xlink:href="#D"/></g><g class="B C D E"><path d="M504.739 321.154v16.297c0 .362.329.543.987.543h.198c.658 0 .988-.181.988-.543v-16.297c0-.362-.33-.544-.988-.544h-.198c-.658 0-.987.182-.987.544"/></g><g class="B C D E"><path d="M514.48 321.154v16.297c0 .362.329.543.987.543h.519c.461 0 .807-.156 1.037-.469l7.877-11.902.741-1.383v13.211c0 .362.329.543.987.543h.173c.658 0 .988-.181.988-.543v-16.297c0-.362-.33-.544-.988-.544h-.494c-.428 0-.716.115-.864.346l-8.149 12.297-.667 1.259v-13.358c0-.362-.329-.544-.987-.544h-.173c-.658 0-.987.182-.987.544"/></g><g class="B F"><path d="M384.478 298.1v16.05c0 .362.329.543.988.543h.198c.658 0 .987-.181.987-.543v-14.914h7.79c.329 0 .495-.247.495-.741v-.395c0-.494-.166-.741-.495-.741h-9.222c-.494 0-.741.247-.741.741"/></g><g class="B C D G H"><path d="M384.478 298.1v16.05c0 .362.329.543.988.543h.198c.658 0 .987-.181.987-.543v-14.914h7.79c.329 0 .495-.247.495-.741v-.395c0-.494-.166-.741-.495-.741h-9.222c-.494 0-.741.247-.741.741z"/></g><g class="B C D E"><path d="M401.919 298.1v15.803c0 .494.247.741.741.741h8.617c.33 0 .495-.247.495-.741v-.395c0-.494-.165-.741-.495-.741h-7.185v-5.63h6.445c.328 0 .494-.247.494-.741v-.395c0-.494-.166-.741-.494-.741h-6.445v-6.024h7.211c.328 0 .494-.247.494-.741v-.395c0-.494-.166-.741-.494-.741h-8.643c-.494 0-.741.247-.741.741"/></g><g class="B C D E"><path d="M418.364 305.853c0 5.959 2.667 8.938 8.001 8.938 1.185 0 2.268-.168 3.247-.505s1.469-.679 1.469-1.025c0-.231-.103-.527-.309-.889s-.383-.543-.531-.543c-.033 0-.209.09-.53.271s-.779.362-1.371.544-1.235.271-1.926.271c-2.091 0-3.58-.577-4.469-1.728s-1.334-2.856-1.334-5.111c0-4.66 1.844-6.989 5.531-6.989 1.301 0 2.363.107 3.186.322v4.987h-2.889c-.33 0-.494.247-.494.741v.395c0 .494.164.741.494.741h4.321c.494 0 .741-.247.741-.741v-6.543c0-1.186-1.836-1.779-5.507-1.779-5.086 0-7.63 2.881-7.63 8.643"/></g><g class="B C D E"><path d="M442.07 303.63h5.901l-2.592 7.358-.322 1.433-.394-1.433zm-4.272-5.901c0 .082.025.198.074.345l5.852 16.224c.082.263.411.395.988.395h.716c.576 0 .905-.132.988-.395l5.852-16.248c.049-.115.073-.223.073-.321 0-.281-.353-.42-1.061-.42h-.197c-.576 0-.906.132-.989.395l-1.456 4.05h-7.259l-1.408-4.05c-.083-.263-.412-.395-.988-.395h-.123c-.708 0-1.062.139-1.062.42"/></g><g class="B C D E"><use xlink:href="#E"/></g><g class="B C D E"><path d="M481.626 297.853v8.37l-5.161 7.606c-.132.181-.197.329-.197.444 0 .28.379.42 1.135.42h.272c.544 0 .897-.123 1.062-.37l4.049-6.074 4.149 6.098c.148.231.559.346 1.235.346s1.012-.14 1.012-.42c0-.066-.066-.214-.198-.444l-5.185-7.679v-8.297c0-.362-.329-.544-.987-.544h-.199c-.658 0-.987.182-.987.544"/></g><g class="B F"><path d="M386.25 283.291h3.852c.626 0 1.243.197 1.852.593.329.213.601.547.815 1s.321.991.321 1.617c0 1.102-.33 1.872-.988 2.309s-1.441.654-2.346.654h-3.506zm-2.173-8.741v16.05c0 .494.247.741.741.741h5.012c1.268 0 2.436-.28 3.506-.84.609-.313 1.095-.812 1.457-1.494s.544-1.486.544-2.407-.145-1.708-.432-2.359-.634-1.148-1.037-1.494a5.04 5.04 0 0 0-1.396-.839c-.806-.33-1.605-.494-2.395-.494h-3.827v-6.864c0-.363-.33-.544-.988-.544h-.198c-.658 0-.987.181-.987.544"/></g><g class="B C D G H"><path d="M386.25 283.291h3.852c.626 0 1.243.197 1.852.593.329.213.601.547.815 1s.321.991.321 1.617c0 1.102-.33 1.872-.988 2.309s-1.441.654-2.346.654h-3.506v-6.173zm-2.173-8.741v16.05c0 .494.247.741.741.741h5.012c1.268 0 2.436-.28 3.506-.84.609-.313 1.095-.812 1.457-1.494s.544-1.486.544-2.407-.145-1.708-.432-2.359-.634-1.148-1.037-1.494a5.04 5.04 0 0 0-1.396-.839c-.806-.33-1.605-.494-2.395-.494h-3.827v-6.864c0-.363-.33-.544-.988-.544h-.198c-.658 0-.987.181-.987.544z"/></g><g class="B C D E"><path d="M404.093 283.538h3.259c.873 0 1.618.3 2.235.9s.926 1.35.926 2.247-.297 1.585-.889 2.063-1.408.716-2.445.716h-3.086zm-2.173-8.988v16.05c0 .494.247.741.74.741h4.149c1.975 0 3.461-.351 4.457-1.05s1.494-1.807 1.494-3.321c0-2.025-.947-3.416-2.84-4.173v-.099c.478-.165.877-.486 1.197-.963s.663-1.185 1.026-2.124l1.926-4.864a1.2 1.2 0 0 0 .074-.346c0-.263-.346-.395-1.037-.395h-.247c-.56 0-.889.132-.988.395l-1.877 4.84c-.362.939-.814 1.576-1.358 1.913s-1.317.507-2.321.507h-2.222v-7.111c0-.363-.33-.544-.988-.544h-.198c-.658 0-.987.181-.987.544"/></g><g class="B C D E"><path d="M423.562 277.562c.913-1.185 2.242-1.777 3.987-1.777s3.078.592 4 1.777 1.383 2.91 1.383 5.174-.461 3.975-1.383 5.136-2.255 1.741-4 1.741-3.074-.581-3.987-1.741-1.371-2.873-1.371-5.136.457-3.988 1.371-5.174m-1.667-1.395c-1.301 1.506-1.951 3.7-1.951 6.581s.646 5.058 1.938 6.531 3.182 2.21 5.667 2.21 4.379-.737 5.68-2.21 1.95-3.651 1.95-6.531-.65-5.075-1.95-6.581-3.189-2.259-5.667-2.259-4.367.753-5.667 2.259"/></g><g class="B C D E"><path d="M440.686 274.697c0 .165.049.433.147.803s.231.555.396.555c.017 0 .201-.037.556-.111s.687-.11 1-.11c1.217 0 2.098.238 2.641.716s.816 1.251.816 2.321v11.975c0 .363.329.543.987.543h.198c.658 0 .988-.18.988-.543v-11.729c0-3.473-1.746-5.21-5.235-5.21-1.663 0-2.494.264-2.494.79"/></g><g class="B C D E"><path d="M456.81 274.797V290.6c0 .494.247.741.74.741h8.618c.33 0 .494-.247.494-.741v-.395c0-.494-.164-.741-.494-.741h-7.185v-5.63h6.444c.329 0 .494-.247.494-.741v-.395c0-.494-.165-.741-.494-.741h-6.444v-6.024h7.21c.329 0 .494-.247.494-.741v-.395c0-.494-.165-.741-.494-.741h-8.643c-.493 0-.74.247-.74.741"/></g><g class="B C D E"><path d="M473.255 282.698c0 5.86 2.667 8.79 8.001 8.79 1.185 0 2.268-.169 3.247-.506s1.469-.679 1.469-1.024c0-.232-.103-.528-.309-.89s-.383-.543-.531-.543c-.033 0-.209.091-.53.272s-.779.362-1.371.544-1.235.271-1.926.271c-1.992 0-3.457-.552-4.396-1.654s-1.407-2.853-1.407-5.248.465-4.148 1.396-5.259 2.366-1.667 4.308-1.667c.741 0 1.441.102 2.099.309s1.169.411 1.531.617.568.308.617.308c.149 0 .329-.18.543-.543s.322-.626.322-.79c0-.379-.515-.769-1.543-1.173s-2.219-.605-3.569-.605c-2.716 0-4.721.712-6.013 2.136s-1.938 3.642-1.938 6.655"/></g><g class="B C D E"><path d="M496.811 274.55v14.914h-4.741c-.329 0-.493.247-.493.741v.395c0 .494.164.741.493.741h11.581c.329 0 .494-.247.494-.741v-.395c0-.494-.165-.741-.494-.741h-4.667V274.55c0-.362-.329-.544-.987-.544h-.198c-.659 0-.988.182-.988.544"/></g></g></svg>