<?xml version="1.0" standalone="no"?>
<!DOCTYPE svg PUBLIC "-//W3C//DTD SVG 20010904//EN"
 "http://www.w3.org/TR/2001/REC-SVG-20010904/DTD/svg10.dtd">
<svg version="1.0" xmlns="http://www.w3.org/2000/svg"
 width="360.000000pt" height="139.000000pt" viewBox="0 0 360.000000 139.000000"
 preserveAspectRatio="xMidYMid meet">
<metadata>
Created by potrace 1.16, written by Peter Selinger 2001-2019
</metadata>
<g transform="translate(0.000000,139.000000) scale(0.100000,-0.100000)"
fill="#000000" stroke="none">
<path d="M1 1103 c0 -270 1 -285 15 -233 8 30 33 93 56 140 33 69 58 102 132
176 74 74 107 99 176 132 47 23 110 48 140 56 52 14 37 15 -232 15 l-288 1 1
-287z"/>
<path d="M870 1374 c277 -73 481 -303 521 -586 12 -83 5 -238 -10 -238 -5 0
-25 23 -45 52 -34 48 -214 258 -222 258 -2 0 36 -50 84 -110 48 -61 97 -129
109 -152 12 -22 32 -51 45 -65 l23 -24 -24 -67 c-12 -37 -41 -95 -63 -130 -40
-61 -164 -185 -179 -180 -6 3 -170 191 -218 251 -12 16 -11 21 15 48 26 28 27
31 12 40 -16 9 -17 13 -3 39 21 41 19 47 -10 20 -47 -44 -38 -11 12 43 44 49
100 152 70 130 -7 -5 -31 -24 -55 -42 -24 -19 -45 -31 -48 -28 -4 3 3 23 13
44 39 76 55 112 55 120 0 4 4 15 10 23 6 8 -6 -3 -26 -24 -37 -41 -56 -44 -36
-6 6 11 18 40 26 63 12 37 12 40 -1 23 -29 -39 -27 -5 3 41 17 26 28 51 25 56
-7 12 -45 -33 -83 -98 -16 -27 -66 -95 -109 -150 -44 -54 -77 -102 -73 -105 4
-3 18 -27 31 -53 13 -26 39 -61 58 -77 18 -16 33 -33 33 -37 0 -5 33 -44 73
-88 41 -44 81 -93 90 -110 9 -16 16 -24 17 -17 0 17 100 -97 100 -114 0 -17
-148 -89 -220 -108 -49 -13 106 -15 1338 -15 l1392 -1 0 445 c0 417 -1 445
-18 445 -11 0 -37 32 -72 86 l-55 86 -3 -86 c-3 -78 -5 -86 -22 -86 -19 0 -20
7 -20 125 0 118 1 125 20 125 13 0 36 -25 71 -77 28 -43 54 -81 58 -85 3 -4 5
29 3 73 -3 74 -2 81 17 86 20 5 21 12 21 129 l0 124 -1392 -1 c-1241 0 -1387
-2 -1338 -15z m705 -246 c9 -13 27 -40 39 -61 l23 -39 34 59 c28 45 40 58 59
58 l25 0 0 -130 c0 -123 -1 -130 -20 -130 -18 0 -21 8 -25 78 l-5 77 -24 -45
c-29 -54 -54 -59 -79 -14 -36 64 -38 63 -34 -8 4 -73 -10 -102 -43 -89 -12 4
-15 28 -15 129 0 68 3 127 7 130 13 14 43 6 58 -15z m439 1 c37 -17 59 -72 53
-132 -6 -68 -47 -107 -110 -107 -70 1 -107 44 -107 125 0 50 20 98 47 114 24
14 86 14 117 0z m186 -82 c0 -59 4 -97 12 -105 7 -7 29 -12 50 -12 49 0 58 21
58 131 0 72 2 79 20 79 19 0 20 -7 20 -96 0 -92 -1 -97 -29 -125 -40 -39 -109
-41 -146 -4 -23 22 -25 31 -25 125 0 93 1 100 20 100 19 0 20 -7 20 -93z m352
11 l53 -83 3 83 c3 74 5 82 22 82 19 0 20 -8 20 -125 0 -159 -10 -163 -92 -37
l-58 87 0 -87 c0 -81 -2 -88 -20 -88 -19 0 -20 7 -20 125 0 118 1 125 20 125
13 0 35 -25 72 -82z m368 62 c0 -16 -7 -20 -35 -20 l-34 0 -3 -102 c-3 -95 -4
-103 -23 -103 -19 0 -20 8 -23 102 l-3 102 -32 3 c-21 2 -33 9 -35 21 -3 15 6
17 92 17 89 0 96 -1 96 -20z m219 -92 c23 -62 41 -119 41 -125 0 -26 -36 -13
-47 17 -10 27 -15 30 -56 30 -41 0 -46 -3 -56 -30 -7 -21 -17 -30 -32 -30 -13
0 -19 5 -17 13 3 6 22 63 44 125 33 96 42 112 60 112 19 0 28 -17 63 -112z
m-1485 -214 c3 -9 6 -57 6 -107 l0 -92 52 0 c50 0 53 -2 53 -25 0 -25 -1 -25
-80 -25 l-80 0 -3 119 c-1 66 0 126 2 133 7 18 43 16 50 -3z m341 -14 c0 -11
-14 -16 -52 -18 -52 -3 -53 -3 -53 -35 0 -32 1 -32 47 -32 36 0 48 -4 48 -15
0 -11 -13 -16 -47 -18 -47 -3 -48 -4 -48 -37 0 -34 0 -34 53 -37 38 -2 52 -7
52 -18 0 -12 -16 -16 -72 -18 l-73 -3 0 126 0 126 73 -3 c56 -2 72 -6 72 -18z
m254 11 c8 -5 11 -16 8 -24 -4 -11 -17 -13 -51 -10 -63 8 -86 -13 -86 -76 0
-64 21 -91 71 -91 37 0 39 2 39 30 0 25 -4 30 -25 30 -16 0 -25 6 -25 15 0 11
12 15 45 15 l45 0 0 -53 c0 -29 -5 -58 -12 -65 -20 -20 -112 -15 -141 9 -55
42 -56 160 -2 207 27 23 105 31 134 13z m235 -33 c9 -24 27 -74 41 -112 30
-81 31 -96 7 -96 -10 0 -22 12 -29 30 -10 27 -15 30 -56 30 -41 0 -46 -3 -56
-30 -7 -20 -17 -30 -30 -30 -12 0 -21 2 -21 4 0 7 80 227 86 237 3 5 14 9 24
9 13 0 23 -13 34 -42z m306 32 c37 -20 13 -37 -43 -32 -67 5 -82 -10 -82 -83
0 -75 15 -89 87 -82 45 4 58 2 58 -9 0 -33 -88 -46 -139 -19 -38 19 -55 63
-49 127 4 42 11 57 37 80 33 30 93 38 131 18z m146 -30 c15 -22 28 -40 30 -40
2 0 16 18 30 40 15 23 35 40 45 40 26 0 24 -8 -15 -66 -29 -43 -35 -62 -38
-115 -3 -56 -5 -64 -23 -64 -18 0 -21 8 -25 70 -4 60 -10 78 -37 115 -38 51
-40 60 -13 60 12 0 30 -16 46 -40z m-1206 -283 c80 -40 50 -146 -42 -151 -32
-1 -33 -3 -38 -51 -4 -42 -8 -50 -25 -50 -19 0 -20 8 -23 119 -1 66 0 126 2
133 7 17 92 17 126 0z m245 -9 c33 -15 43 -54 22 -90 -14 -25 -14 -30 2 -65
33 -69 35 -83 11 -83 -16 0 -26 12 -41 49 -17 40 -26 50 -50 53 -29 5 -29 4
-29 -49 0 -46 -3 -53 -20 -53 -19 0 -20 7 -20 125 l0 125 50 0 c27 0 61 -5 75
-12z m305 -16 c53 -53 49 -158 -7 -201 -37 -30 -103 -28 -140 3 -24 21 -28 32
-31 94 -4 68 -3 73 26 102 25 25 39 30 77 30 38 0 52 -5 75 -28z m470 8 c0
-17 -7 -20 -50 -20 -49 0 -50 -1 -50 -30 0 -29 2 -30 45 -30 38 0 45 -3 45
-20 0 -17 -7 -20 -45 -20 -45 0 -45 0 -45 -35 l0 -35 50 0 c44 0 50 -3 50 -20
0 -19 -5 -21 -72 -18 l-73 3 -3 109 c-1 61 0 116 2 123 4 9 27 13 76 13 63 0
70 -2 70 -20z m250 10 c37 -20 13 -37 -43 -32 -67 5 -81 -10 -81 -83 0 -75 14
-89 86 -82 45 4 58 2 58 -9 0 -33 -88 -46 -139 -19 -38 19 -55 63 -49 127 4
42 11 57 37 80 33 30 93 38 131 18z m265 -10 c0 -10 -12 -16 -32 -18 l-32 -3
-3 -102 c-3 -94 -4 -102 -23 -102 -19 0 -20 8 -23 103 l-3 102 -34 0 c-29 0
-35 4 -35 20 0 20 5 21 93 18 74 -2 92 -6 92 -18z"/>
<path d="M1910 1085 c-18 -22 -23 -96 -8 -125 11 -21 21 -25 58 -25 44 0 45 1
59 41 13 36 13 47 0 80 -13 35 -18 39 -55 42 -28 2 -45 -2 -54 -13z"/>
<path d="M2156 438 c-9 -12 -16 -41 -16 -63 0 -55 22 -85 64 -85 47 0 66 26
66 88 0 60 -17 82 -65 82 -24 0 -39 -7 -49 -22z"/>
<path d="M455 669 c-161 -155 -209 -196 -286 -244 -49 -30 -91 -55 -93 -55 -7
0 -46 98 -60 152 -14 49 -15 33 -15 -234 l-1 -288 288 1 287 0 -68 20 c-129
37 -174 74 -133 108 21 18 100 141 93 147 -3 3 -21 -9 -40 -25 -39 -35 -47
-37 -47 -17 0 11 -12 8 -51 -10 -55 -27 -72 -25 -47 3 9 10 23 34 31 53 8 19
36 59 61 89 55 63 76 101 76 135 0 14 5 28 10 31 6 3 10 19 10 35 0 16 4 32
10 35 5 3 15 16 20 28 6 12 -7 2 -30 -22 -54 -59 -63 -45 -11 20 57 72 55 95
-4 38z"/>
</g>
</svg>
