<svg id="Layer_1" enable-background="new 0 0 512.008 512.008" height="512" viewBox="0 0 512.008 512.008" width="512" xmlns="http://www.w3.org/2000/svg"><path d="m310.899 512h-290.941c-26.536-1.056-26.516-38.953 0-40h290.941c11.021 0 20.649-5.387 26.417-14.779 5.768-9.393 6.215-20.417 1.229-30.246l-188.219-371.028c-5.063-10-14.767-15.957-25.958-15.947-11.193.009-20.885 5.982-25.924 15.976l-54.518 108.61c-5.136 10.185-5.255 22.365-.335 32.616l30.51 63.557 48.691-94.889c3.386-6.598 10.144-10.781 17.559-10.868 7.402-.091 14.273 3.935 17.81 10.452l42.371 78c5.272 9.706 1.679 21.849-8.027 27.121-9.704 5.272-21.849 1.679-27.121-8.027l-24.293-44.721-49.794 97.033c-3.427 6.678-10.301 10.869-17.793 10.869-.089 0-.177 0-.267-.002-7.595-.101-14.478-4.495-17.765-11.343l-47.941-99.873c-10.254-21.362-10.006-46.746.662-67.902l54.517-108.61c11.816-23.43 35.421-37.977 61.624-37.999 26.199-.023 49.834 14.487 61.67 37.864l188.213 371.015c24.317 46.154-11.171 103.927-63.318 103.121zm201.059-20c0-11.046-8.954-20-20-20h-65c-26.536 1.056-26.516 38.953 0 40h65c11.045 0 20-8.954 20-20zm-43.708-123.818s35.979-60.879 36.229-61.4c10.254-21.361 10.006-46.745-.666-67.91l-70.102-138.878c-8.711-17.275-26.143-28.017-45.491-28.033-19.345-.016-36.797 10.698-45.529 27.946l-38.57 76.045c-4.996 9.851-1.061 21.887 8.79 26.884 9.848 4.996 21.888 1.062 26.884-8.79l38.576-76.058c2.759-5.442 7.769-6.027 9.817-6.027 2.033.001 7.06.594 9.812 6.051l70.1 138.876c5.004 9.923 5.23 21.783.645 31.884l-16.337 27.622-34.602-68.42c-3.397-6.717-10.277-10.958-17.805-10.974-7.524-.017-14.427 4.196-17.852 10.898l-23 45c-11.137 24.111 22.619 41.338 35.617 18.204l5.097-9.972 33.324 65.896c3.297 6.52 9.887 10.723 17.188 10.963.222.007.441.011.662.011 7.052 0 13.605-3.72 17.213-9.818z"/></svg>